#!OML:ASF F:\VICON\USERDATA\INSTALL\rory3\rory3.ASF
:FULLY-SPECIFIED
:DEGREES
289
root 0.514395 18.1252 14.2283 -0.886073 -0.998303 -1.95904
lowerback 7.5706 -1.26487 -0.188977
upperback 0.675691 -1.5912 2.95352
thorax -3.45644 -0.769884 3.33277
lowerneck -15.7813 -2.67729 -1.32282
upperneck 17.2275 -3.34359 -0.0740777
head 7.95135 -1.6845 -0.187959
rclavicle 2.53947e-014 -3.81667e-014
rhumerus -36.2202 -26.387 -71.3521
rradius 22.3652
rwrist 9.35051
rhand -15.647 19.0203
rfingers 7.12502
rthumb 10.5407 -10.6954
lclavicle 2.53947e-014 -3.81667e-014
lhumerus -29.1219 -1.12383 82.0953
lradius 31.9661
lwrist -0.342554
lhand -23.9072 27.1353
lfingers 7.12502
lthumb 2.567 57.0996
rfemur -23.246 6.8945 25.1396
rtibia 25.5731
rfoot -2.77061 -2.34473
rtoes 8.80465
lfemur 3.38542 -3.46269 -20.5248
ltibia 49.4736
lfoot 5.80516 -15.4792
ltoes -11.6409
290
root 0.499368 18.136 14.4073 -0.995168 -0.921844 -2.17021
lowerback 7.52986 -1.30294 0.0690994
upperback 0.713862 -1.62076 2.98191
thorax -3.39875 -0.788919 3.21745
lowerneck -15.6393 -2.66363 -1.46222
upperneck 17.1278 -3.3205 0.0652177
head 7.89814 -1.66931 -0.113548
rclavicle -1.12313e-014 1.59028e-015
rhumerus -36.0682 -26.0131 -71.5212
rradius 22.209
rwrist 9.10805
rhand -16.0427 19.0219
rfingers 7.12502
rthumb 10.159 -10.7129
lclavicle -1.12313e-014 1.59028e-015
lhumerus -29.5257 -0.924712 82.2076
lradius 31.8924
lwrist -0.664572
lhand -23.8434 26.6722
lfingers 7.12502
lthumb 2.62861 56.6358
rfemur -22.5644 6.8233 25.5621
rtibia 25.7627
rfoot -3.29122 -2.14781
rtoes 9.15417
lfemur 2.69475 -3.24306 -20.0882
ltibia 51.5136
lfoot 7.10779 -15.6246
ltoes -9.08662
291
root 0.480535 18.1594 14.5835 -1.03725 -0.991708 -2.44166
lowerback 7.61374 -1.28436 0.319801
upperback 0.699452 -1.57248 2.99099
thorax -3.46978 -0.767599 3.08357
lowerneck -15.6428 -2.65359 -1.31257
upperneck 17.1018 -3.33669 0.0350305
head 7.88683 -1.67025 -0.1496
rclavicle -3.42904e-015 -9.54166e-015
rhumerus -35.9434 -25.8958 -71.7238
rradius 22.1016
rwrist 9.16725
rhand -16.4459 18.8737
rfingers 7.12502
rthumb 9.76994 -10.8797
lclavicle -3.42904e-015 -9.54166e-015
lhumerus -29.8023 -0.952924 82.2553
lradius 31.6273
lwrist -0.627105
lhand -23.7901 25.5074
lfingers 7.12502
lthumb 2.68005 55.4703
rfemur -21.985 6.81545 26.0736
rtibia 25.9685
rfoot -3.70221 -1.95807
rtoes 9.80814
lfemur 1.65977 -2.80344 -19.5385
ltibia 53.4251
lfoot 9.10954 -16.0815
ltoes -9.18999
292
root 0.465155 18.1863 14.7533 -0.982308 -1.03537 -2.48993
lowerback 7.58412 -1.19007 0.393236
upperback 0.683861 -1.44278 2.9369
thorax -3.47907 -0.704273 2.97187
lowerneck -15.8289 -2.69604 -1.22906
upperneck 17.2311 -3.41719 0.0536595
head 7.96192 -1.70016 -0.170135
rclavicle -1.74931e-014 3.73715e-014
rhumerus -35.8192 -25.8756 -71.8509
rradius 22.1687
rwrist 9.1948
rhand -16.3479 18.8475
rfingers 7.12502
rthumb 9.86453 -10.9015
lclavicle -1.74931e-014 3.73715e-014
lhumerus -29.7859 -1.15457 82.4263
lradius 31.0886
lwrist -0.471098
lhand -23.9197 25.1791
lfingers 7.12502
lthumb 2.55488 55.1435
rfemur -21.4602 6.81875 26.2895
rtibia 25.9939
rfoot -3.65159 -1.90093
rtoes 10.9346
lfemur 0.429681 -2.47806 -19.2893
ltibia 55.2895
lfoot 11.3773 -15.8791
ltoes -7.83638
293
root 0.454887 18.2118 14.9199 -1.02605 -1.0508 -2.64782
lowerback 7.5904 -1.16421 0.660393
upperback 0.659672 -1.38581 2.91022
thorax -3.51742 -0.679549 2.78829
lowerneck -15.593 -2.74555 -1.27915
upperneck 17.1267 -3.47772 0.0640815
head 7.88713 -1.73224 -0.160937
rclavicle -3.73218e-014 1.78906e-014
rhumerus -35.8357 -25.6341 -71.9996
rradius 22.3308
rwrist 9.19675
rhand -16.2346 19.0477
rfingers 7.12502
rthumb 9.97382 -10.696
lclavicle -3.73218e-014 1.78906e-014
lhumerus -30.0435 -1.38226 82.612
lradius 30.8264
lwrist -0.24217
lhand -24.0905 26.2329
lfingers 7.12502
lthumb 2.38999 56.1992
rfemur -20.6981 6.78973 26.6174
rtibia 25.8951
rfoot -3.47607 -2.03094
rtoes 12.5423
lfemur -0.61995 -2.13015 -18.9443
ltibia 57.103
lfoot 12.8567 -15.5543
ltoes -5.03076
294
root 0.434377 18.2329 15.0772 -1.09189 -1.31706 -3.30481
lowerback 7.79596 -1.10017 1.26351
upperback 0.64393 -1.23643 3.06696
thorax -3.66477 -0.612568 2.602
lowerneck -15.4594 -2.76065 -1.40035
upperneck 17.0054 -3.49343 0.180472
head 7.82798 -1.73676 -0.101427
rclavicle -7.37988e-015 3.4191e-014
rhumerus -35.6634 -25.2844 -72.2225
rradius 22.3465
rwrist 9.27521
rhand -15.9369 19.7698
rfingers 7.12502
rthumb 10.261 -9.95993
lclavicle -7.37988e-015 3.4191e-014
lhumerus -30.4171 -1.24839 82.6922
lradius 30.7543
lwrist -0.440737
lhand -23.7823 26.8311
lfingers 7.12502
lthumb 2.68758 56.7939
rfemur -19.9317 7.15887 27.5387
rtibia 25.8259
rfoot -3.43649 -2.32613
rtoes 13.3044
lfemur -1.7316 -1.49822 -17.9112
ltibia 58.8745
lfoot 13.5896 -15.8254
ltoes -3.14443
295
root 0.41432 18.2456 15.2397 -1.22097 -1.75296 -3.61389
lowerback 7.89827 -0.913542 1.47461
upperback 0.776409 -0.968927 3.11241
thorax -3.59667 -0.483121 2.50156
lowerneck -15.7448 -2.73706 -1.36546
upperneck 17.0709 -3.48805 0.294858
head 7.9015 -1.71911 -0.0735272
rclavicle 1.73937e-014 -2.46493e-014
rhumerus -35.2867 -25.1433 -72.5011
rradius 22.4922
rwrist 9.47712
rhand -15.5252 19.6845
rfingers 7.12502
rthumb 10.6581 -10.0252
lclavicle 1.73937e-014 -2.46493e-014
lhumerus -30.5427 -1.13387 82.7659
lradius 30.6936
lwrist -0.670396
lhand -23.5784 26.9756
lfingers 7.12502
lthumb 2.88451 56.9358
rfemur -19.1476 7.63611 28.1028
rtibia 25.8189
rfoot -4.22166 -2.524
rtoes 10.27
lfemur -2.70557 -0.726692 -17.3282
ltibia 60.5114
lfoot 13.7538 -15.8637
ltoes -4.18085
